<svg width="24" height="24" viewBox="0 0 24 24" xmlns="http://www.w3.org/2000/svg">
<path fill-rule="evenodd" clip-rule="evenodd" d="M18 10C18 14.4183 14.4183 18 10 18C5.58172 18 2 14.4183 2 10C2 5.58172 5.58172 2 10 2C14.4183 2 18 5.58172 18 10ZM16.3287 17.7429C14.6049 19.1536 12.4013 20 10 20C4.47715 20 0 15.5228 0 10C0 4.47715 4.47715 0 10 0C15.5228 0 20 4.47715 20 10C20 12.4013 19.1536 14.6049 17.7429 16.3287L23.7031 22.2889C24.0936 22.6794 24.0936 23.3126 23.7031 23.7031C23.3126 24.0937 22.6794 24.0937 22.2889 23.7031L16.3287 17.7429Z" />
</svg>
